<svg width="191" height="62" viewBox="0 0 191 62" fill="none" xmlns="http://www.w3.org/2000/svg">
<path d="M2.64205 60.125V25.2159H11.0795V39.2273H24.8352V25.2159H33.2557V60.125H24.8352V46.0966H11.0795V60.125H2.64205ZM45.929 60.5682C44.2585 60.5682 42.7756 60.2898 41.4801 59.733C40.196 59.1648 39.179 58.3125 38.429 57.1761C37.6903 56.0284 37.321 54.5909 37.321 52.8636C37.321 51.4091 37.5767 50.1818 38.0881 49.1818C38.5994 48.1818 39.304 47.3693 40.2017 46.7443C41.0994 46.1193 42.1335 45.6477 43.304 45.3295C44.4744 45 45.7244 44.7784 47.054 44.6648C48.5426 44.5284 49.7415 44.3864 50.6506 44.2386C51.5597 44.0795 52.2188 43.858 52.6278 43.5739C53.0483 43.2784 53.2585 42.8636 53.2585 42.3295V42.2443C53.2585 41.3693 52.9574 40.6932 52.3551 40.2159C51.7528 39.7386 50.9403 39.5 49.9176 39.5C48.8153 39.5 47.929 39.7386 47.2585 40.2159C46.5881 40.6932 46.1619 41.3523 45.9801 42.1932L38.2926 41.9205C38.5199 40.3295 39.1051 38.9091 40.0483 37.6591C41.0028 36.3977 42.3097 35.4091 43.9688 34.6932C45.6392 33.9659 47.6449 33.6023 49.9858 33.6023C51.6563 33.6023 53.196 33.8011 54.6051 34.1989C56.0142 34.5852 57.2415 35.1534 58.2869 35.9034C59.3324 36.642 60.1392 37.5511 60.7074 38.6307C61.2869 39.7102 61.5767 40.9432 61.5767 42.3295V60.125H53.7358V56.4773H53.5312C53.0653 57.3636 52.4688 58.1136 51.7415 58.7273C51.0256 59.3409 50.179 59.8011 49.2017 60.108C48.2358 60.4148 47.1449 60.5682 45.929 60.5682ZM48.5028 55.1136C49.4006 55.1136 50.2074 54.9318 50.9233 54.5682C51.6506 54.2045 52.2301 53.7045 52.6619 53.0682C53.0938 52.4205 53.3097 51.6705 53.3097 50.8182V48.3295C53.071 48.4545 52.7813 48.5682 52.4403 48.6705C52.1108 48.7727 51.7472 48.8693 51.3494 48.9602C50.9517 49.0511 50.5426 49.1307 50.1222 49.1989C49.7017 49.267 49.2983 49.3295 48.9119 49.3864C48.1278 49.5114 47.4574 49.7045 46.9006 49.9659C46.3551 50.2273 45.9347 50.5682 45.6392 50.9886C45.3551 51.3977 45.2131 51.8864 45.2131 52.4545C45.2131 53.3182 45.5199 53.9773 46.1335 54.4318C46.7585 54.8864 47.5483 55.1136 48.5028 55.1136ZM47.3949 30.6193L50.8381 22.9318H58.2188L53.071 30.6193H47.3949ZM66.6733 60.125V25.2159H75.0085V38.4261H75.179C75.5199 37.6307 76.0028 36.8636 76.6278 36.125C77.2642 35.3864 78.071 34.7841 79.0483 34.3182C80.0369 33.8409 81.2188 33.6023 82.5938 33.6023C84.4119 33.6023 86.1108 34.0795 87.6903 35.0341C89.2812 35.9886 90.5653 37.4602 91.5426 39.4489C92.5199 41.4375 93.0085 43.9716 93.0085 47.0511C93.0085 50.017 92.5369 52.5 91.5938 54.5C90.6619 56.5 89.4006 58 87.8097 59C86.2301 60 84.4744 60.5 82.5426 60.5C81.2244 60.5 80.0824 60.2841 79.1165 59.8523C78.1506 59.4205 77.3381 58.8523 76.679 58.1477C76.0312 57.4432 75.5313 56.6875 75.179 55.8807H74.9233V60.125H66.6733ZM74.8381 47.0341C74.8381 48.4432 75.0256 49.6705 75.4006 50.7159C75.7869 51.7614 76.3381 52.5739 77.054 53.1534C77.7812 53.7216 78.6506 54.0057 79.6619 54.0057C80.6847 54.0057 81.554 53.7216 82.2699 53.1534C82.9858 52.5739 83.5256 51.7614 83.8892 50.7159C84.2642 49.6705 84.4517 48.4432 84.4517 47.0341C84.4517 45.625 84.2642 44.4034 83.8892 43.3693C83.5256 42.3352 82.9858 41.5341 82.2699 40.9659C81.5653 40.3977 80.696 40.1136 79.6619 40.1136C78.6392 40.1136 77.7699 40.392 77.054 40.9489C76.3381 41.5057 75.7869 42.3011 75.4006 43.3352C75.0256 44.3693 74.8381 45.6023 74.8381 47.0341ZM97.3764 60.125V33.9432H105.712V60.125H97.3764ZM101.553 30.892C100.382 30.892 99.3764 30.5057 98.5355 29.733C97.6946 28.9489 97.2741 28.0057 97.2741 26.9034C97.2741 25.8125 97.6946 24.8807 98.5355 24.108C99.3764 23.3239 100.382 22.9318 101.553 22.9318C102.734 22.9318 103.74 23.3239 104.57 24.108C105.411 24.8807 105.831 25.8125 105.831 26.9034C105.831 28.0057 105.411 28.9489 104.57 29.733C103.74 30.5057 102.734 30.892 101.553 30.892ZM125.795 33.9432V40.0795H109.278V33.9432H125.795ZM112.739 27.6705H121.074V51.892C121.074 52.4034 121.153 52.8182 121.312 53.1364C121.483 53.4432 121.727 53.6648 122.045 53.8011C122.364 53.9261 122.744 53.9886 123.188 53.9886C123.506 53.9886 123.841 53.9602 124.193 53.9034C124.557 53.8352 124.83 53.7784 125.011 53.733L126.273 59.75C125.875 59.8636 125.313 60.0057 124.585 60.1761C123.869 60.3466 123.011 60.4545 122.011 60.5C120.057 60.5909 118.381 60.3636 116.983 59.8182C115.597 59.2614 114.534 58.3977 113.795 57.2273C113.068 56.0568 112.716 54.5852 112.739 52.8125V27.6705ZM141.989 60.6193C139.239 60.6193 136.875 60.0568 134.898 58.9318C132.932 57.7955 131.415 56.2159 130.347 54.1932C129.29 52.1591 128.761 49.8011 128.761 47.1193C128.761 44.4261 129.29 42.0682 130.347 40.0455C131.415 38.0114 132.932 36.4318 134.898 35.3068C136.875 34.1705 139.239 33.6023 141.989 33.6023C144.739 33.6023 147.097 34.1705 149.062 35.3068C151.04 36.4318 152.557 38.0114 153.614 40.0455C154.682 42.0682 155.216 44.4261 155.216 47.1193C155.216 49.8011 154.682 52.1591 153.614 54.1932C152.557 56.2159 151.04 57.7955 149.062 58.9318C147.097 60.0568 144.739 60.6193 141.989 60.6193ZM142.04 54.3295C143.04 54.3295 143.886 54.0227 144.58 53.4091C145.273 52.7955 145.801 51.9432 146.165 50.8523C146.54 49.7614 146.727 48.5 146.727 47.0682C146.727 45.6136 146.54 44.3409 146.165 43.25C145.801 42.1591 145.273 41.3068 144.58 40.6932C143.886 40.0795 143.04 39.7727 142.04 39.7727C141.006 39.7727 140.131 40.0795 139.415 40.6932C138.71 41.3068 138.17 42.1591 137.795 43.25C137.432 44.3409 137.25 45.6136 137.25 47.0682C137.25 48.5 137.432 49.7614 137.795 50.8523C138.17 51.9432 138.71 52.7955 139.415 53.4091C140.131 54.0227 141.006 54.3295 142.04 54.3295ZM182.344 41.9375L174.69 42.142C174.611 41.5966 174.395 41.1136 174.043 40.6932C173.69 40.2614 173.23 39.9261 172.662 39.6875C172.105 39.4375 171.457 39.3125 170.719 39.3125C169.753 39.3125 168.929 39.5057 168.247 39.892C167.577 40.2784 167.247 40.8011 167.259 41.4602C167.247 41.9716 167.452 42.4148 167.872 42.7898C168.304 43.1648 169.071 43.4659 170.173 43.6932L175.219 44.6477C177.832 45.1477 179.776 45.9773 181.048 47.1364C182.332 48.2955 182.98 49.8295 182.991 51.7386C182.98 53.5341 182.446 55.0966 181.389 56.4261C180.344 57.7557 178.912 58.7898 177.094 59.5284C175.276 60.2557 173.196 60.6193 170.855 60.6193C167.116 60.6193 164.168 59.8523 162.009 58.3182C159.861 56.7727 158.634 54.7045 158.327 52.1136L166.56 51.9091C166.741 52.8636 167.213 53.5909 167.974 54.0909C168.736 54.5909 169.707 54.8409 170.889 54.8409C171.957 54.8409 172.827 54.642 173.497 54.2443C174.168 53.8466 174.509 53.3182 174.52 52.6591C174.509 52.0682 174.247 51.5966 173.736 51.2443C173.224 50.8807 172.423 50.5966 171.332 50.392L166.764 49.5227C164.139 49.0455 162.185 48.1648 160.901 46.8807C159.616 45.5852 158.98 43.9375 158.991 41.9375C158.98 40.1875 159.446 38.6932 160.389 37.4545C161.332 36.2045 162.673 35.25 164.412 34.5909C166.151 33.9318 168.202 33.6023 170.565 33.6023C174.111 33.6023 176.906 34.3466 178.952 35.8352C180.997 37.3125 182.128 39.3466 182.344 41.9375Z" fill="white"/>
<rect x="0.5" y="0.875" width="15" height="15" rx="3.5" fill="#18181B" stroke="#27272A"/>
<rect x="20.5" y="0.875" width="15" height="15" rx="3.5" fill="#4C1D95" stroke="#6D28D9"/>
<rect x="40.5" y="0.875" width="15" height="15" rx="3.5" fill="#5B21B6" stroke="#7C3AED"/>
<rect x="60.5" y="0.875" width="15" height="15" rx="3.5" fill="#6D28D9" stroke="#8B5CF6"/>
<rect x="80.5" y="0.875" width="15" height="15" rx="3.5" fill="#7C3AED" stroke="#A78BFA"/>
<rect x="100.5" y="0.875" width="15" height="15" rx="3.5" fill="#8B5CF6" stroke="#C4B5FD"/>
 </svg>
